<?xml version="1.0" encoding="UTF-8" standalone="no"?>
<svg
   xmlns:dc="http://purl.org/dc/elements/1.1/"
   xmlns:cc="http://creativecommons.org/ns#"
   xmlns:rdf="http://www.w3.org/1999/02/22-rdf-syntax-ns#"
   xmlns:svg="http://www.w3.org/2000/svg"
   xmlns="http://www.w3.org/2000/svg"
   xmlns:sodipodi="http://sodipodi.sourceforge.net/DTD/sodipodi-0.dtd"
   xmlns:inkscape="http://www.inkscape.org/namespaces/inkscape"
   version="1.1"
   width="24"
   height="24"
   viewBox="0 0 24.00 24.00"
   enable-background="new 0 0 24.00 24.00"
   xml:space="preserve"
   id="svg3996"
   inkscape:version="0.48.5 r10040"
   sodipodi:docname="account.svg"><metadata
     id="metadata4004"><rdf:RDF><cc:Work
         rdf:about=""><dc:format>image/svg+xml</dc:format><dc:type
           rdf:resource="http://purl.org/dc/dcmitype/StillImage" /><dc:title></dc:title></cc:Work></rdf:RDF></metadata><defs
     id="defs4002" /><sodipodi:namedview
     pagecolor="#ffffff"
     bordercolor="#666666"
     borderopacity="1"
     objecttolerance="10"
     gridtolerance="10"
     guidetolerance="10"
     inkscape:pageopacity="0"
     inkscape:pageshadow="2"
     inkscape:window-width="1920"
     inkscape:window-height="1009"
     id="namedview4000"
     showgrid="false"
     inkscape:zoom="19.666667"
     inkscape:cx="18.608056"
     inkscape:cy="16.51225"
     inkscape:window-x="0"
     inkscape:window-y="69"
     inkscape:window-maximized="1"
     inkscape:current-layer="svg3996" /><path
     d="M 12 4 C 10.530465 4 9.2578324 4.7878625 8.5625 5.96875 L 14.03125 11.4375 C 15.212138 10.742159 16 9.4695088 16 8 C 16 5.79086 14.2091 4 12 4 z M 4.6875 4.625 L 3.40625 5.90625 L 11.53125 14.03125 C 7.3339915 14.154084 4 15.870596 4 18 L 4 20 L 17.5 20 L 19.125 21.625 L 20.40625 20.375 L 20 19.96875 L 14.21875 14.1875 L 12.03125 12 L 9.15625 9.09375 L 8 7.9375 L 4.6875 4.625 z M 17.90625 15.3125 L 19.875 17.28125 C 19.604372 16.531369 18.887991 15.854544 17.90625 15.3125 z "
     id="path3998" /></svg>