<?xml version="1.0" encoding="UTF-8" standalone="no"?>
<svg
   xmlns:dc="http://purl.org/dc/elements/1.1/"
   xmlns:cc="http://creativecommons.org/ns#"
   xmlns:rdf="http://www.w3.org/1999/02/22-rdf-syntax-ns#"
   xmlns:svg="http://www.w3.org/2000/svg"
   xmlns="http://www.w3.org/2000/svg"
   xmlns:xlink="http://www.w3.org/1999/xlink"
   xmlns:sodipodi="http://sodipodi.sourceforge.net/DTD/sodipodi-0.dtd"
   xmlns:inkscape="http://www.inkscape.org/namespaces/inkscape"
   version="1.1"
   width="48"
   height="48"
   viewBox="0 0 48 48"
   enable-background="new 0 0 24.00 24.00"
   xml:space="preserve"
   id="svg4859"
   inkscape:version="0.48.5 r10040"
   sodipodi:docname="ic_launcher.svg"><sodipodi:namedview
     pagecolor="#ffffff"
     bordercolor="#666666"
     borderopacity="1"
     objecttolerance="10"
     gridtolerance="10"
     guidetolerance="10"
     inkscape:pageopacity="0"
     inkscape:pageshadow="2"
     inkscape:window-width="1920"
     inkscape:window-height="1009"
     id="namedview4863"
     showgrid="false"
     inkscape:zoom="16"
     inkscape:cx="18.423969"
     inkscape:cy="18.917068"
     inkscape:window-x="0"
     inkscape:window-y="-3"
     inkscape:window-maximized="1"
     inkscape:current-layer="layer3"
     showguides="true"
     inkscape:guide-bbox="true" /><metadata
     id="metadata4867"><rdf:RDF><cc:Work
         rdf:about=""><dc:format>image/svg+xml</dc:format><dc:type
           rdf:resource="http://purl.org/dc/dcmitype/StillImage" /><dc:title></dc:title></cc:Work></rdf:RDF></metadata><defs
     id="defs4865"><linearGradient
       id="linearGradient11089"><stop
         style="stop-color:#000000;stop-opacity:1;"
         offset="0"
         id="stop11091" /><stop
         style="stop-color:#000000;stop-opacity:0;"
         offset="1"
         id="stop11093" /></linearGradient><linearGradient
       id="linearGradient10282"><stop
         id="stop10284"
         offset="0"
         style="stop-color:#000000;stop-opacity:1;" /><stop
         id="stop10286"
         offset="1"
         style="stop-color:#000000;stop-opacity:0;" /></linearGradient><linearGradient
       inkscape:collect="always"
       xlink:href="#linearGradient11089"
       id="linearGradient11099"
       x1="5.59375"
       y1="4.765625"
       x2="21"
       y2="19.230583"
       gradientUnits="userSpaceOnUse"
       gradientTransform="matrix(2.0000015,0,0,2.0000015,-2.0000182,-22.000033)" /><linearGradient
       inkscape:collect="always"
       xlink:href="#linearGradient11089"
       id="linearGradient11129"
       gradientUnits="userSpaceOnUse"
       gradientTransform="matrix(2.0000015,0,0,2.0000015,-2.0000182,-22.000033)"
       x1="5.59375"
       y1="4.765625"
       x2="21"
       y2="19.230583" /></defs><g
     inkscape:groupmode="layer"
     id="layer1"
     inkscape:label="Background"
     style="display:inline"
     transform="translate(0,24)" /><g
     inkscape:groupmode="layer"
     id="layer5"
     inkscape:label="Keeper Shadow"
     style="display:inline"
     transform="translate(0,24)" /><g
     inkscape:groupmode="layer"
     id="layer4"
     inkscape:label="Shadow"
     style="display:inline"
     transform="translate(0,24)" /><g
     inkscape:groupmode="layer"
     id="layer3"
     inkscape:label="Icon"
     style="display:inline"
     transform="translate(0,24)"><g
       id="g11122"
       transform="translate(1.9999849,-2.00001)"><path
         d="m 41.979985,-13.999977 c 0,-2.208022 -1.772001,-4.000003 -3.980003,-4.000003 l -31.9999638,0 c -2.2080216,0 -4.000003,1.791981 -4.000003,4.000003 l 0,23.9999179 c 0,2.2082021 1.7919814,4.0000031 4.000003,4.0000031 l 27.9999608,0 8.000006,8.000006 -0.02,-35.999927 z"
         id="path4861"
         style="fill:#795548;fill-opacity:1;stroke:none;display:inline"
         inkscape:connector-curvature="0" /><path
         inkscape:connector-curvature="0"
         id="path10938"
         d="m 16.374996,-12.687526 c 0.789663,0.789663 1.250001,1.857516 1.250001,3.062502 0,2.3889504 -1.931647,4.3412281 -4.312504,4.3750033 L 8.9374901,-9.625024 c 0,1.2050107 0.4603471,2.2728487 1.2500009,3.0625023 L 24.312502,7.6249891 C 23.522847,6.8353345 23.062501,5.7049976 23.062501,4.4999867 L 27.437504,8.87499 c 2.409972,0 4.312503,-1.9649655 4.312503,-4.3750033 0,-1.2049869 -0.460336,-2.2728377 -1.250001,-3.0625023 L 16.374996,-12.687526 z m 18.687514,5.2500036 0,17.4375133 -6.500005,0 -19.6250149,0 4.0000029,4.0000031 21.062516,0 L 42.000015,22 l 0,-22.5000171 -6.937505,-6.9375053 z"
         style="opacity:0.2;fill:url(#linearGradient11129);fill-opacity:1;fill-rule:nonzero;stroke-width:0.2;stroke-linejoin:round;display:inline" /><path
         sodipodi:nodetypes="cccccccsssss"
         style="fill:#d7ccc8;fill-opacity:1;stroke-width:0.2;stroke-linejoin:round;display:inline"
         inkscape:connector-curvature="0"
         d="m 8.9090815,10.008173 19.6363795,0 6.545459,0 0,-17.4545588 -8.727279,8.7272801 -4.363639,-4.3636394 z m 4.3636395,-24.000018 c -2.409973,0 -4.3636395,1.953667 -4.3636395,4.3636392 0,2.4100382 1.9536665,4.3636391 4.3636395,4.3636391 2.409973,0 4.36364,-1.9536009 4.36364,-4.3636391 0,-2.4099722 -1.953667,-4.3636392 -4.36364,-4.3636392 z"
         id="path5701" /></g></g></svg>